<svg xmlns="http://www.w3.org/2000/svg" width="48" height="48" viewBox="0 0 48 48" fill="none">
  <!-- Background circle - subtle gradient -->
  <defs>
    <linearGradient id="grad1" x1="0%" y1="0%" x2="100%" y2="100%">
      <stop offset="0%" style="stop-color:#6366F1;stop-opacity:1" />
      <stop offset="100%" style="stop-color:#8B5CF6;stop-opacity:1" />
    </linearGradient>
    <linearGradient id="grad2" x1="0%" y1="0%" x2="100%" y2="100%">
      <stop offset="0%" style="stop-color:#A78BFA;stop-opacity:1" />
      <stop offset="100%" style="stop-color:#7C3AED;stop-opacity:1" />
    </linearGradient>
    <filter id="glow" x="-50%" y="-50%" width="200%" height="200%">
      <feGaussianBlur stdDeviation="1.5" result="coloredBlur"/>
      <feMerge>
        <feMergeNode in="coloredBlur"/>
        <feMergeNode in="SourceGraphic"/>
      </feMerge>
    </filter>
  </defs>
  
  <!-- Subtle background circle -->
  <circle cx="24" cy="24" r="22" fill="url(#grad1)" opacity="0.15"/>
  
  <!-- Main S shape - elegant and minimal -->
  <path d="M32 16C32 14.8954 31.1046 14 30 14H22C20.8954 14 20 14.8954 20 16C20 17.1046 20.8954 18 22 18H28V22L20 28C19.4477 28.5523 19.4477 29.4477 20 30C20.5523 30.5523 21.4477 30.5523 22 30L30 22V30C30 31.1046 30.8954 32 32 32C33.1046 32 34 31.1046 34 30V16C34 14.8954 33.1046 14 32 14" 
        fill="url(#grad2)" 
        stroke="url(#grad2)" 
        stroke-width="2"
        stroke-linecap="round"
        stroke-linejoin="round"
        filter="url(#glow)"/>
  
  <!-- Growth arrow - subtle accent -->
  <path d="M15 34L15 38M12 35L15 38L18 35" 
        stroke="#8B5CF6" 
        stroke-width="2" 
        stroke-linecap="round" 
        stroke-linejoin="round"
        opacity="0.8"/>
</svg>